<svg width="322" height="79" viewBox="0 0 322 79" fill="none" xmlns="http://www.w3.org/2000/svg">
<circle cx="37.2832" cy="42.8062" r="4" fill="white"/>
<path d="M40.8359 43.2017C46.3935 43.8061 52.1112 36.8334 58.2019 37.398C68.5207 38.3546 76.8 47.895 66.5251 63.8551" stroke="white" stroke-width="1.5"/>
<path d="M39.2163 45.3882C43.3501 49.1518 52.0785 46.8884 56.6664 50.934C64.4391 57.7881 65.5053 70.375 47.7984 77.2135" stroke="white" stroke-width="1.5"/>
<path d="M37.7814 46.0025C38.881 51.4837 47.2531 54.8328 48.5513 60.8102C50.7508 70.9372 44.1509 81.7079 25.8354 76.7237" stroke="white" stroke-width="1.5"/>
<path d="M35.3835 45.7379C33.1657 50.8696 38.1401 58.3905 35.803 64.0433C31.8435 73.6201 20.2844 78.7146 8.068 64.1869" stroke="white" stroke-width="1.5"/>
<path d="M34.1847 45.2435C29.2271 47.8271 28.344 56.8009 22.9652 59.7136C13.8525 64.6483 1.66916 61.3117 1.35132 42.3328" stroke="white" stroke-width="1.5"/>
<path d="M33.9469 42.2721C28.4008 41.5697 22.5609 48.4402 16.4811 47.7682C6.1808 46.6297 -1.92875 36.9445 8.62632 21.1683" stroke="white" stroke-width="1.5"/>
<path d="M34.7945 40.7999C30.4135 37.3271 21.8599 40.181 17.0066 36.4579C8.78423 30.1503 6.86155 17.6655 24.0604 9.63448" stroke="white" stroke-width="1.5"/>
<path d="M40.6102 39.9207C45.538 37.2807 45.9378 28.78 51.2831 25.8061C60.3389 20.7678 74.2828 25.3235 72.7826 44.8059M35.7833 39.8063C34.7831 34.3061 26.4729 30.8061 25.2831 24.8061C23.2672 14.641 30.061 3.99152 48.2833 9.30634" stroke="white" stroke-width="1.5"/>
<path d="M38.7832 39.3062C39.7833 32.8062 35.5989 28.8707 37.2827 24.3056C40.9709 14.3058 55.2886 5.06427 66.7832 22.3061" stroke="white" stroke-width="1.5"/>
<path d="M305.812 54.8062V30.3062H319.883V32.1962H307.878V42.2062H316.698V42.9062H307.878V52.9162H321.423V54.8062H305.812Z" fill="white"/>
<path d="M289.321 55.3313C287.291 55.3313 285.506 54.9696 283.966 54.2463C282.426 53.5229 281.19 52.5079 280.256 51.2013C279.346 49.8946 278.81 48.3779 278.646 46.6513H280.711C280.898 48.0279 281.353 49.2413 282.076 50.2913C282.8 51.3179 283.768 52.1113 284.981 52.6713C286.195 53.2313 287.606 53.5113 289.216 53.5113C291.503 53.5113 293.276 53.0679 294.536 52.1813C295.82 51.2713 296.461 49.9879 296.461 48.3313C296.461 47.1179 296.1 46.1496 295.376 45.4263C294.676 44.6796 293.755 44.1313 292.611 43.7812C291.491 43.4079 290.045 43.0579 288.271 42.7313H288.236C286.37 42.4046 284.83 42.0313 283.616 41.6113C282.403 41.1913 281.4 40.5729 280.606 39.7563C279.813 38.9163 279.416 37.8079 279.416 36.4312C279.416 35.1013 279.79 33.9346 280.536 32.9313C281.306 31.9279 282.356 31.1579 283.686 30.6213C285.04 30.0613 286.591 29.7812 288.341 29.7812C290.255 29.7812 291.935 30.1312 293.381 30.8312C294.851 31.5079 296.018 32.4879 296.881 33.7713C297.745 35.0546 298.246 36.5596 298.386 38.2863H296.251C295.995 36.1863 295.166 34.5529 293.766 33.3862C292.39 32.1962 290.605 31.6012 288.411 31.6012C286.988 31.6012 285.74 31.8229 284.666 32.2662C283.616 32.6862 282.8 33.3046 282.216 34.1213C281.633 34.9379 281.341 35.8829 281.341 36.9562C281.341 38.1229 281.68 39.0446 282.356 39.7213C283.033 40.3746 283.931 40.8879 285.051 41.2613C286.171 41.6113 287.688 41.9729 289.601 42.3463C289.671 42.3696 289.741 42.3813 289.811 42.3813C289.881 42.3813 289.94 42.3929 289.986 42.4163C290.033 42.4396 290.08 42.4513 290.126 42.4513C290.173 42.4513 290.22 42.4629 290.266 42.4862C292.04 42.8363 293.486 43.2096 294.606 43.6063C295.726 44.0029 296.648 44.6213 297.371 45.4613C298.118 46.2779 298.491 47.3979 298.491 48.8213C298.491 50.1513 298.118 51.3063 297.371 52.2863C296.625 53.2663 295.563 54.0246 294.186 54.5613C292.81 55.0746 291.188 55.3313 289.321 55.3313Z" fill="white"/>
<path d="M261.834 55.3312C259.734 55.3312 257.891 54.8762 256.304 53.9662C254.718 53.0562 253.493 51.7845 252.629 50.1512C251.766 48.4945 251.334 46.5578 251.334 44.3412V30.3062H253.434V44.2362C253.434 46.0795 253.773 47.6895 254.449 49.0662C255.126 50.4195 256.094 51.4695 257.354 52.2162C258.614 52.9395 260.108 53.3012 261.834 53.3012C263.538 53.3012 265.019 52.9395 266.279 52.2162C267.539 51.4695 268.508 50.4195 269.184 49.0662C269.861 47.6895 270.199 46.0795 270.199 44.2362V30.3062H272.299V44.3412C272.299 46.5578 271.868 48.4945 271.004 50.1512C270.141 51.7845 268.916 53.0562 267.329 53.9662C265.766 54.8762 263.934 55.3312 261.834 55.3312Z" fill="white"/>
<path d="M223.547 54.8062L233.802 30.3062H236.532L246.752 54.8062H244.512L241.292 47.0362H229.007L225.717 54.8062H223.547ZM229.252 46.3712H241.012L235.167 32.4762L229.252 46.3712Z" fill="white"/>
<path d="M205.26 54.8062V30.3062H212.4C215.247 30.3062 217.487 30.9362 219.12 32.1962C220.754 33.4328 221.57 35.1362 221.57 37.3062C221.57 39.4762 220.765 41.1912 219.155 42.4512C217.569 43.6878 215.387 44.3062 212.61 44.3062H207.36V54.8062H205.26ZM212.225 43.6062C214.489 43.6062 216.262 43.1045 217.545 42.1012C218.829 41.0745 219.47 39.6745 219.47 37.9012C219.47 36.1278 218.829 34.7395 217.545 33.7362C216.262 32.7095 214.489 32.1962 212.225 32.1962H207.36V43.6062H212.225Z" fill="white"/>
<path d="M184.972 55.3313C182.592 55.3313 180.434 54.7829 178.497 53.6863C176.561 52.5663 175.044 51.0379 173.947 49.1013C172.851 47.1413 172.302 44.9596 172.302 42.5563C172.302 40.1529 172.851 37.9829 173.947 36.0463C175.044 34.0863 176.561 32.5579 178.497 31.4612C180.434 30.3412 182.592 29.7812 184.972 29.7812C187.352 29.7812 189.511 30.3412 191.447 31.4612C193.384 32.5579 194.901 34.0863 195.997 36.0463C197.094 37.9829 197.642 40.1529 197.642 42.5563C197.642 44.9596 197.094 47.1413 195.997 49.1013C194.901 51.0379 193.384 52.5663 191.447 53.6863C189.511 54.7829 187.352 55.3313 184.972 55.3313ZM184.972 53.2663C186.956 53.2663 188.752 52.7996 190.362 51.8663C191.972 50.9329 193.232 49.6613 194.142 48.0513C195.052 46.4179 195.507 44.5863 195.507 42.5563C195.507 40.5263 195.052 38.7063 194.142 37.0963C193.232 35.4629 191.972 34.1796 190.362 33.2462C188.752 32.3129 186.956 31.8463 184.972 31.8463C182.989 31.8463 181.192 32.3129 179.582 33.2462C177.996 34.1796 176.736 35.4629 175.802 37.0963C174.892 38.7063 174.437 40.5263 174.437 42.5563C174.437 44.5863 174.892 46.4179 175.802 48.0513C176.736 49.6613 177.996 50.9329 179.582 51.8663C181.192 52.7996 182.989 53.2663 184.972 53.2663Z" fill="white"/>
<path d="M144.234 54.8062V30.3062H146.439L162.574 53.6162V30.3062H164.674V54.8062H162.504L146.334 31.4962V54.8062H144.234Z" fill="white"/>
<path d="M121.822 54.8062V30.3062H135.892V32.1962H123.887V42.2062H132.707V42.9062H123.887V52.9162H137.432V54.8062H121.822Z" fill="white"/>
<path d="M86.7632 54.8062V30.3062H89.2132L99.2932 54.0712L109.408 30.3062H111.788V54.8062H109.688V31.4612L99.7132 54.8062H98.8382L88.8632 31.4612V54.8062H86.7632Z" fill="white"/>
</svg>
