<svg width="80" height="84" viewBox="0 0 80 84" fill="none" xmlns="http://www.w3.org/2000/svg">
<rect width="80" height="84" fill="#EBEFBF"/>
<circle cx="40.2832" cy="42.8062" r="4" fill="#474973"/>
<path d="M43.8359 43.2017C49.3935 43.8061 55.1112 36.8334 61.2019 37.398C71.5207 38.3546 79.8 47.895 69.5251 63.8551" stroke="#474973" stroke-width="1.5"/>
<path d="M42.2163 45.3882C46.3501 49.1518 55.0785 46.8884 59.6664 50.934C67.4391 57.7881 68.5053 70.375 50.7984 77.2135" stroke="#474973" stroke-width="1.5"/>
<path d="M40.7814 46.0025C41.881 51.4837 50.2531 54.8328 51.5513 60.8102C53.7508 70.9372 47.1509 81.7079 28.8354 76.7237" stroke="#474973" stroke-width="1.5"/>
<path d="M38.3835 45.7379C36.1657 50.8696 41.1401 58.3905 38.803 64.0433C34.8435 73.6201 23.2844 78.7146 11.068 64.1869" stroke="#474973" stroke-width="1.5"/>
<path d="M37.1847 45.2435C32.2271 47.8271 31.344 56.8009 25.9652 59.7136C16.8525 64.6483 4.66916 61.3117 4.35132 42.3328" stroke="#474973" stroke-width="1.5"/>
<path d="M36.9469 42.2721C31.4008 41.5697 25.5609 48.4402 19.4811 47.7682C9.1808 46.6297 1.07125 36.9445 11.6263 21.1683" stroke="#474973" stroke-width="1.5"/>
<path d="M37.7945 40.7999C33.4135 37.3271 24.8599 40.181 20.0066 36.4579C11.7842 30.1503 9.86155 17.6655 27.0604 9.63448" stroke="#474973" stroke-width="1.5"/>
<path d="M43.6102 39.9207C48.538 37.2807 48.9378 28.78 54.2831 25.8061C63.3389 20.7678 77.2828 25.3235 75.7826 44.8059M38.7833 39.8063C37.7831 34.3061 29.4729 30.8061 28.2831 24.8061C26.2672 14.641 33.061 3.99152 51.2833 9.30634" stroke="#474973" stroke-width="1.5"/>
<path d="M41.7832 39.3062C42.7833 32.8062 38.5989 28.8707 40.2827 24.3056C43.9709 14.3058 58.2886 5.06427 69.7832 22.3061" stroke="#474973" stroke-width="1.5"/>
</svg>
